<svg width="200" height="200" viewBox="0 0 200 200" xmlns="http://www.w3.org/2000/svg">
  <defs>
    <pattern id="circuit" x="0" y="0" width="200" height="200" patternUnits="userSpaceOnUse">
      <g fill="none" stroke="black" stroke-width="1.5" stroke-opacity="0.8" stroke-linecap="round" stroke-linejoin="round">
        <path d="M0 30 h40 l20 20 h60 l20 -20 h60"/>
        <path d="M0 50 h30 l20 20 h60 l20 -20 h70"/>
        <path d="M0 90 h80 l30 30 h20 l30 -30 h40"/>
        <path d="M0 110 h70 l30 30 h40 l30 -30 h30"/>
        <path d="M0 150 h50 l40 -40 h20 l40 40 h50"/>
        <path d="M0 170 h40 l40 -40 h40 l40 40 h40"/>
      </g>
    </pattern>
  </defs>
  <rect width="100%" height="100%" fill="url(#circuit)"/>
</svg>
